<?xml version="1.0" encoding="UTF-8"?>
<svg id="Layer_1" xmlns="http://www.w3.org/2000/svg" xmlns:xlink="http://www.w3.org/1999/xlink" version="1.1" viewBox="0 0 1000 1000">
  <!-- Generator: Adobe Illustrator 29.3.1, SVG Export Plug-In . SVG Version: 2.1.0 Build 151)  -->
  <defs>
    <style>
      .st0, .st1, .st2, .st3 {
        fill: none;
      }

      .st4 {
        stroke-width: 2px;
      }

      .st4, .st5, .st1, .st2, .st3, .st6 {
        stroke-miterlimit: 10;
      }

      .st4, .st5, .st3 {
        stroke: #221f1f;
      }

      .st4, .st5, .st6 {
        fill: #231f20;
      }

      .st7 {
        fill: #81ccc4;
      }

      .st7, .st8, .st9, .st6 {
        fill-rule: evenodd;
      }

      .st8 {
        fill: #fff;
        isolation: isolate;
        opacity: .2;
      }

      .st8, .st3 {
        display: none;
      }

      .st1 {
        stroke-width: 3.5px;
      }

      .st1, .st2, .st6 {
        stroke: #231f20;
      }

      .st2, .st3 {
        stroke-width: 3px;
      }

      .st9 {
        fill: #221fff;
      }

      .st6 {
        stroke-width: 4px;
      }
    </style>
    <clipPath id="clippath">
      <path class="st0" d="M684.6,603c21.3.3,38.4,17.9,38,39.2s-17.9,38.4-39.2,38-38.4-17.9-38-39.2c.3-21.3,17.9-38.4,39.2-38Z"/>
    </clipPath>
    <clipPath id="clippath-1">
      <rect class="st0" x="534.8" y="559.5" width="283.5" height="151.2"/>
    </clipPath>
  </defs>
  <path class="st2" d="M677.1,596.5c21.3.3,38.4,17.9,38,39.2s-17.9,38.4-39.2,38-38.4-17.9-38-39.2c.3-21.3,17.9-38.4,39.2-38"/>
  <path class="st9" d="M684.6,603c21.3.3,38.4,17.9,38,39.2s-17.9,38.4-39.2,38-38.4-17.9-38-39.2c.3-21.3,17.9-38.4,39.2-38"/>
  <path class="st7" d="M684.6,603c21.3.3,38.4,17.9,38,39.2s-17.9,38.4-39.2,38-38.4-17.9-38-39.2c.3-21.3,17.9-38.4,39.2-38"/>
  <path class="st8" d="M684.6,603c21.3.3,38.4,17.9,38,39.2s-17.9,38.4-39.2,38-38.4-17.9-38-39.2c.3-21.3,17.9-38.4,39.2-38"/>
  <path class="st3" d="M339.2,393.4c-11.8,2.1-18.7,15.9-17.6,16.9h0c1.2,1.2,11.7-13.6,26.6-13,9.4.4,15.7,6.7,15.8,6.5.2-.3-12.1-12.7-24.8-10.4Z"/>
  <path class="st4" d="M493.4,424.1c36.9-7.8,71.3-24.1,100.8-47.6-25.5,28.2-62.8,45.8-100.8,47.6h0Z"/>
  <path class="st4" d="M587.3,374.6c-25.3-.9-50.7.7-75.5,5.3-9.8,1.9-19.7,4.1-28.3,9.2-10.1,6.1-24.6,22.5-21.5,35,2.5,9.5,13.9,13.1,21.9,17,22.9,10.7,46.4,20.2,69.6,30.4,9.3,4.2,18.5,8.9,27,14.6,30.6,20,51.1,53.1,51.8,90,1,31.2-10.4,61-32.6,83.1,11.1-12.2,19.7-26.5,24.7-42.1,16.9-56.5-7.3-108.4-59-135.2-27.1-13.4-55.8-24-83.2-37.2-9.1-4.4-21.1-8.7-23.8-19.8-2.5-10.9,4.6-21.1,11.4-28.7,10.7-12.3,26-16.4,41.5-18.8,25.1-3.9,50.7-4.8,76-2.9h0Z"/>
  <path class="st4" d="M504.5,427.2c25.5,2.4,51.4-3.2,72.9-17.1,21.7-13.6,37.6-34.8,46.4-58.9-2.7,12.6-8.2,24.8-15.8,35.5-22.4,32.4-65.1,49.7-103.5,40.5h0Z"/>
  <path class="st4" d="M456.6,369.9c56.1-8.2,117.8-16.3,174.1-22.8-57.2,12.5-115.5,20.1-174.1,22.8h0Z"/>
  <path class="st4" d="M600.9,319.8c-41.7,7.3-87.6,14-128.3,24.5-7,1.8-13.8,4.5-20.9,6.2-7.1,1.8-14.5,3-21.8,3.6-14.7.9-29.2-.3-43.9-1.1-3.8-.3-12.5-1.1-16.2-1.1h-5.3c-26.8,1.9-56.2,20.1-72.1,41.5-4.4,5.8-8.5,11.9-12.4,18.1l.4-1.1c.6,8.5,2.3,16.8,5.1,24.9,5.6,16.1,16,30.5,29.4,41.1,6.7,5.3,14.2,9.8,22.1,13.2-15.2-5.7-28.9-15.5-39.2-28-11.8-14.4-19-32.4-20.5-50.9l.4-1.1h0c0-.1.4-.7.5-.9,3.5-5.9,7.3-11.6,11.4-17.2,16.7-22.9,46-41.3,74.6-43.5h5.6c3.9-.2,12.5.8,16.4,1,7.2.6,14.4.9,21.7,1.2,14.5.9,28.7.3,42.8-3.2,7.1-1.6,13.9-4.2,20.9-6,42.5-10.1,85.9-15.4,129.2-21h0v-.2Z"/>
  <path class="st5" d="M371.1,624.3c-8.4,2.5-15.9,7-20.8,14.2-4.6,6.8-6.1,14.8-5.7,23-2-4-2.6-8.6-2.2-13.2,1.1-14.1,14.5-25.5,28.6-24h.1Z"/>
  <path class="st4" d="M441.8,619.7c-7.6-19.4-9.6-41.6-2.2-61.4,7.4-19.4,21.5-35.9,38.3-47.9.8-.6,2.3-.7,3.1,0,.9.9.7,2.7-.4,3.3-8.1,5.6-14.9,13-20.2,21.2-14.8,23.7-16.2,55.5-2.8,80.1,5.2,10.1,13.1,18.7,22.1,25.5-9.7-6.2-18-14.6-24-24.5-15.1-25.1-14.2-58.6,1.1-83.4,5.5-8.8,12.7-16.6,21.3-22.4-1.3,1-.9,2.8.5,3.6.5.3,1.4.2,1.6,0h0l-.8.6c-15.8,11.5-29.3,26.8-36.9,45-7.9,19.2-6.7,40.6-.7,60.3h0Z"/>
  <path class="st5" d="M438.5,627.8c-13.3.2-25,6.7-30.2,19.1-1.7,3.9-2.7,8.1-3.3,12.6-1.2-4.4-1.2-9.2.1-13.7,3.7-14.2,19.4-23.2,33.4-18h0Z"/>
  <path class="st5" d="M470.2,639.1c-12.2-1.8-24.4-2.5-36.4,0-5.7,1.2-11.4,2.8-15,7.5-3.6,4.5-5.4,10.5-5.9,16.7-.6-3.1-.7-6.3-.2-9.5,1.9-11.5,9.4-16.9,20.3-18.9,12.5-2.5,25.7-1,37.2,4.2h0Z"/>
  <path class="st4" d="M421.1,663.1c57.2-4.1,115.4-5.4,172.7-3.7-57.2,4.2-115.4,5.4-172.7,3.7h0Z"/>
  <path class="st5" d="M350.4,661.3c8.4-1.6,16.9-1.8,25.4-1.8,8.5.2,17,.7,25.3,2.5-8.4,1.6-16.9,1.8-25.4,1.8-8.5-.2-16.9-.7-25.3-2.5h0Z"/>
  <path class="st4" d="M338.8,493.5c4.7,15.6,10.3,30.9,17.6,45.4,2.4,4.8,5,9.5,7.5,14.5,9.9,19.9,11.4,43.2,7.4,64.7,0-5.5,0-10.9-.2-16.3-.7-16-3.9-32.2-11-46.5-2.4-4.8-5-9.6-7.3-14.6-6.9-14.9-11.8-30.9-14-47.2h0Z"/>
  <path class="st6" d="M638,622.1c-.5,1.2-5.7,12.3-2.5,14.8,1.6,1.3,4.8.2,6.9-1.1,8.5-5.3,3.2-17.7,9.4-26.4,9.9-14,40.7-6.1,41.1-9.3.2-1.8-9.5-6.2-20.1-5.5-21.7,1.4-32.6,23-34.8,27.5h0Z"/>
  <path class="st6" d="M706.8,611.2c-1.5.5,9.6,18.5,2.1,30.8-7.2,11.7-25.3,8.3-29.3,20.3-1.2,3.8-1,8.8,1.7,11.2,4.2,3.6,12.9-.7,15-1.8,10.3-5.1,19.4-16.9,20.6-30.8,1.5-16.6-8.7-30.1-10-29.7h0Z"/>
  <path class="st1" d="M364.9,404.4c.3-.4-6.8-9.4-18.3-10.8-1.9-.2-7.6-.9-13.5,2.1-8.7,4.4-12.5,13.7-11.6,14.5.7.6,4.3-5.2,13-9.2,3-1.4,9.1-4.2,16.3-3.3,8.7,1.1,13.9,7.1,14.1,6.8h0Z"/>
</svg>